<?xml version="1.0" standalone="no"?><!DOCTYPE svg PUBLIC "-//W3C//DTD SVG 1.1//EN" "http://www.w3.org/Graphics/SVG/1.1/DTD/svg11.dtd"><svg class="icon" height="512" viewBox="0 0 1024 1024" version="1.1" xmlns="http://www.w3.org/2000/svg"><path d="M853.333333 370.773333V170.666667h-200.106666L512 29.44 370.773333 170.666667H170.666667v200.106666L29.44 512 170.666667 653.226667V853.333333h200.106666L512 994.56 653.226667 853.333333H853.333333v-200.106666L994.56 512 853.333333 370.773333zM512 768c-37.973333 0-74.24-8.533333-106.666667-23.466667C493.226667 704 554.666667 615.253333 554.666667 512s-61.44-192-149.333334-232.533333C437.76 264.533333 474.026667 256 512 256c141.226667 0 256 114.773333 256 256s-114.773333 256-256 256z" /></svg>